<?xml version="1.0" encoding="utf-8"?>
<!-- Generator: Adobe Illustrator 26.5.0, SVG Export Plug-In . SVG Version: 6.00 Build 0)  -->
<svg version="1.1" id="prefix__Layer_1" xmlns="http://www.w3.org/2000/svg" xmlns:xlink="http://www.w3.org/1999/xlink" x="0px"
	 y="0px" viewBox="0 0 226.8 226.8" style="enable-background:new 0 0 226.8 226.8;" xml:space="preserve">
<style type="text/css">
	.st0{fill:#18BCF2;}
</style>
<g>
	<path class="st0" d="M199.2,64.2l-24.1,14.5l-56.3-39.8c0,0-5.8-5.2-12.7,0S42.9,85.2,42.9,85.2S38,88.2,38,94.4
		c0,6.2,0,40.7,0,40.7s23.4-21.7,66.4-31.1s67.9-10.9,108.8-35.3V83c0,0-1.6,8-9.4,13.2c-7.8,5.2-25.5,12.1-54.3,10.9
		s-42.9,0.2-75.7,11.2s-60.5,45.1-60.5,45.1V97.8v-7.2c0,0-1.3-13.8,12.1-23.9s73.9-53.6,73.9-53.6s14.7-7.6,27,0
		S199.2,64.2,199.2,64.2z"/>
	<path class="st0" d="M213.3,101.3c0,0-15.9,13.9-73.7,16.8s-89.1,15.8-107.4,38.2s-18.7,44.2-18.9,59.9h14.1c0,0,8.7,2.4,10.9-12.1
		c2.2-14.5,6.5-36.2,27.5-48s46.9-15.2,69.5-17.4S213.3,128.6,213.3,101.3z"/>
	<path class="st0" d="M213.3,123.5c0,0-10.5,8.9-25.5,15.8V177c0,0,0.5,13.4-14.5,14.5c-15,1.1-50.5,0-50.5,0v-33.7h-18.5v58.6h73.9
		c0,0,18.3,0,27-12.1c8.7-12.1,8-21.9,8.1-26.2S213.3,123.5,213.3,123.5z"/>
	<rect x="56.2" y="172.1" class="st0" width="19.3" height="44.9"/>
</g>
</svg>
